<mxfile host="Electron" modified="2024-02-26T11:26:01.180Z" agent="Mozilla/5.0 (Windows NT 10.0; Win64; x64) AppleWebKit/537.36 (KHTML, like Gecko) draw.io/23.1.5 Chrome/120.0.6099.109 Electron/28.1.0 Safari/537.36" etag="QiptE6bIzVhbJ_ZmIOV5" version="23.1.5" type="device">
  <diagram name="Page-1" id="edf60f1a-56cd-e834-aa8a-f176f3a09ee4">
    <mxGraphModel dx="1383" dy="803" grid="1" gridSize="10" guides="1" tooltips="1" connect="1" arrows="1" fold="1" page="1" pageScale="1" pageWidth="1100" pageHeight="850" background="none" math="0" shadow="0">
      <root>
        <mxCell id="0" />
        <mxCell id="1" parent="0" />
        <mxCell id="60e70716793133e9-27" value="Create work&amp;nbsp;&lt;div&gt;order backorder&lt;/div&gt;" style="whiteSpace=wrap;html=1;rounded=0;shadow=1;labelBackgroundColor=none;strokeWidth=1;fontFamily=Verdana;fontSize=8;align=center;" parent="1" vertex="1">
          <mxGeometry x="680" y="1470" width="120" height="40" as="geometry" />
        </mxCell>
        <mxCell id="4LLk1U2p2mITUdQfyqg7-3" value="" style="edgeStyle=orthogonalEdgeStyle;rounded=0;orthogonalLoop=1;jettySize=auto;html=1;" edge="1" parent="1" source="4LLk1U2p2mITUdQfyqg7-1" target="4LLk1U2p2mITUdQfyqg7-2">
          <mxGeometry relative="1" as="geometry" />
        </mxCell>
        <mxCell id="4LLk1U2p2mITUdQfyqg7-1" value="&lt;font style=&quot;font-size: 12px;&quot;&gt;Старт&lt;/font&gt;" style="strokeWidth=1;html=1;shape=mxgraph.flowchart.terminator;whiteSpace=wrap;rounded=0;shadow=1;labelBackgroundColor=none;fontFamily=Verdana;fontSize=8;align=center;" vertex="1" parent="1">
          <mxGeometry x="210" y="20" width="60" height="30" as="geometry" />
        </mxCell>
        <mxCell id="4LLk1U2p2mITUdQfyqg7-5" value="" style="edgeStyle=orthogonalEdgeStyle;rounded=0;orthogonalLoop=1;jettySize=auto;html=1;" edge="1" parent="1" source="4LLk1U2p2mITUdQfyqg7-2" target="4LLk1U2p2mITUdQfyqg7-4">
          <mxGeometry relative="1" as="geometry" />
        </mxCell>
        <mxCell id="4LLk1U2p2mITUdQfyqg7-2" value="arr - данный массив строк&lt;br&gt;count - счетчик&lt;br&gt;indexer - массив битов(индикатор)" style="rounded=1;whiteSpace=wrap;html=1;align=center;" vertex="1" parent="1">
          <mxGeometry x="145" y="80" width="190" height="60" as="geometry" />
        </mxCell>
        <mxCell id="4LLk1U2p2mITUdQfyqg7-6" style="edgeStyle=orthogonalEdgeStyle;rounded=0;orthogonalLoop=1;jettySize=auto;html=1;" edge="1" parent="1" source="4LLk1U2p2mITUdQfyqg7-4">
          <mxGeometry relative="1" as="geometry">
            <mxPoint x="240" y="300" as="targetPoint" />
          </mxGeometry>
        </mxCell>
        <mxCell id="4LLk1U2p2mITUdQfyqg7-14" value="Да" style="edgeLabel;html=1;align=center;verticalAlign=middle;resizable=0;points=[];" vertex="1" connectable="0" parent="4LLk1U2p2mITUdQfyqg7-6">
          <mxGeometry x="-0.2745" y="2" relative="1" as="geometry">
            <mxPoint x="8" as="offset" />
          </mxGeometry>
        </mxCell>
        <mxCell id="4LLk1U2p2mITUdQfyqg7-10" style="edgeStyle=orthogonalEdgeStyle;rounded=0;orthogonalLoop=1;jettySize=auto;html=1;" edge="1" parent="1" source="4LLk1U2p2mITUdQfyqg7-4" target="4LLk1U2p2mITUdQfyqg7-16">
          <mxGeometry relative="1" as="geometry">
            <mxPoint x="480" y="260" as="targetPoint" />
          </mxGeometry>
        </mxCell>
        <mxCell id="4LLk1U2p2mITUdQfyqg7-11" value="Нет" style="edgeLabel;html=1;align=center;verticalAlign=middle;resizable=0;points=[];" vertex="1" connectable="0" parent="4LLk1U2p2mITUdQfyqg7-10">
          <mxGeometry x="-0.5873" relative="1" as="geometry">
            <mxPoint x="11" y="-15" as="offset" />
          </mxGeometry>
        </mxCell>
        <mxCell id="4LLk1U2p2mITUdQfyqg7-4" value="&lt;font style=&quot;font-size: 12px;&quot;&gt;элемент массива &amp;lt;= 3 символа?&lt;/font&gt;" style="rhombus;whiteSpace=wrap;html=1;rounded=0;shadow=1;labelBackgroundColor=none;strokeWidth=1;fontFamily=Verdana;fontSize=8;align=center;" vertex="1" parent="1">
          <mxGeometry x="140" y="160" width="200" height="90" as="geometry" />
        </mxCell>
        <mxCell id="4LLk1U2p2mITUdQfyqg7-9" style="edgeStyle=orthogonalEdgeStyle;rounded=0;orthogonalLoop=1;jettySize=auto;html=1;entryX=0;entryY=0.5;entryDx=0;entryDy=0;" edge="1" parent="1" source="4LLk1U2p2mITUdQfyqg7-8" target="4LLk1U2p2mITUdQfyqg7-4">
          <mxGeometry relative="1" as="geometry">
            <Array as="points">
              <mxPoint x="120" y="330" />
              <mxPoint x="120" y="205" />
            </Array>
          </mxGeometry>
        </mxCell>
        <mxCell id="4LLk1U2p2mITUdQfyqg7-8" value="&lt;span style=&quot;font-size: 12px;&quot;&gt;indexer[i] = 1&lt;br&gt;count++&lt;br&gt;&lt;/span&gt;" style="rounded=0;whiteSpace=wrap;html=1;shadow=1;labelBackgroundColor=none;strokeWidth=1;fontFamily=Verdana;fontSize=8;align=center;" vertex="1" parent="1">
          <mxGeometry x="180" y="300" width="120" height="60" as="geometry" />
        </mxCell>
        <mxCell id="4LLk1U2p2mITUdQfyqg7-20" value="" style="edgeStyle=orthogonalEdgeStyle;rounded=0;orthogonalLoop=1;jettySize=auto;html=1;" edge="1" parent="1" source="4LLk1U2p2mITUdQfyqg7-16" target="4LLk1U2p2mITUdQfyqg7-19">
          <mxGeometry relative="1" as="geometry" />
        </mxCell>
        <mxCell id="4LLk1U2p2mITUdQfyqg7-16" value="result - массив, величиной {count} элементов" style="rounded=1;whiteSpace=wrap;html=1;" vertex="1" parent="1">
          <mxGeometry x="370" y="260" width="120" height="60" as="geometry" />
        </mxCell>
        <mxCell id="4LLk1U2p2mITUdQfyqg7-26" style="edgeStyle=orthogonalEdgeStyle;rounded=0;orthogonalLoop=1;jettySize=auto;html=1;entryX=0;entryY=0.5;entryDx=0;entryDy=0;" edge="1" parent="1" source="4LLk1U2p2mITUdQfyqg7-19" target="4LLk1U2p2mITUdQfyqg7-19">
          <mxGeometry relative="1" as="geometry">
            <mxPoint x="330" y="560" as="targetPoint" />
            <Array as="points">
              <mxPoint x="430" y="500" />
              <mxPoint x="210" y="500" />
              <mxPoint x="210" y="395" />
            </Array>
          </mxGeometry>
        </mxCell>
        <mxCell id="4LLk1U2p2mITUdQfyqg7-27" value="Да" style="edgeLabel;html=1;align=center;verticalAlign=middle;resizable=0;points=[];" vertex="1" connectable="0" parent="4LLk1U2p2mITUdQfyqg7-26">
          <mxGeometry x="-0.2594" y="-1" relative="1" as="geometry">
            <mxPoint as="offset" />
          </mxGeometry>
        </mxCell>
        <mxCell id="4LLk1U2p2mITUdQfyqg7-28" style="edgeStyle=orthogonalEdgeStyle;rounded=0;orthogonalLoop=1;jettySize=auto;html=1;" edge="1" parent="1" source="4LLk1U2p2mITUdQfyqg7-19" target="4LLk1U2p2mITUdQfyqg7-21">
          <mxGeometry relative="1" as="geometry">
            <mxPoint x="500" y="530" as="targetPoint" />
            <Array as="points">
              <mxPoint x="591" y="395" />
              <mxPoint x="591" y="520" />
              <mxPoint x="430" y="520" />
            </Array>
          </mxGeometry>
        </mxCell>
        <mxCell id="4LLk1U2p2mITUdQfyqg7-29" value="Нет" style="edgeLabel;html=1;align=center;verticalAlign=middle;resizable=0;points=[];" vertex="1" connectable="0" parent="4LLk1U2p2mITUdQfyqg7-28">
          <mxGeometry x="-0.8673" y="-2" relative="1" as="geometry">
            <mxPoint as="offset" />
          </mxGeometry>
        </mxCell>
        <mxCell id="4LLk1U2p2mITUdQfyqg7-19" value="&lt;font style=&quot;font-size: 12px;&quot;&gt;Заполняем массив &lt;br&gt;result с помощью &lt;br&gt;indexer&lt;br&gt;&lt;/font&gt;" style="rhombus;whiteSpace=wrap;html=1;rounded=0;shadow=1;labelBackgroundColor=none;strokeWidth=1;fontFamily=Verdana;fontSize=8;align=center;" vertex="1" parent="1">
          <mxGeometry x="330" y="350" width="200" height="90" as="geometry" />
        </mxCell>
        <mxCell id="4LLk1U2p2mITUdQfyqg7-24" value="" style="edgeStyle=orthogonalEdgeStyle;rounded=0;orthogonalLoop=1;jettySize=auto;html=1;" edge="1" parent="1" source="4LLk1U2p2mITUdQfyqg7-21" target="4LLk1U2p2mITUdQfyqg7-23">
          <mxGeometry relative="1" as="geometry" />
        </mxCell>
        <mxCell id="4LLk1U2p2mITUdQfyqg7-21" value="вывод: {result}" style="shape=parallelogram;perimeter=parallelogramPerimeter;whiteSpace=wrap;html=1;fixedSize=1;" vertex="1" parent="1">
          <mxGeometry x="370" y="550" width="120" height="60" as="geometry" />
        </mxCell>
        <mxCell id="4LLk1U2p2mITUdQfyqg7-23" value="&lt;font style=&quot;font-size: 12px;&quot;&gt;Конец&lt;br&gt;&lt;/font&gt;" style="strokeWidth=1;html=1;shape=mxgraph.flowchart.terminator;whiteSpace=wrap;rounded=0;shadow=1;labelBackgroundColor=none;fontFamily=Verdana;fontSize=8;align=center;" vertex="1" parent="1">
          <mxGeometry x="400" y="630" width="60" height="30" as="geometry" />
        </mxCell>
      </root>
    </mxGraphModel>
  </diagram>
</mxfile>
